<?xml version="1.0" encoding="UTF-8" standalone="no"?>
<!-- Created with Inkscape (http://www.inkscape.org/) -->

<svg
   version="1.1"
   width="232.561"
   height="251.45845"
   viewBox="0 0 232.561 251.45845"
   id="Layer_1"
   xml:space="preserve"
   sodipodi:docname="fagus.svg"
   inkscape:version="1.1.2 (0a00cf5339, 2022-02-04)"
   xmlns:inkscape="http://www.inkscape.org/namespaces/inkscape"
   xmlns:sodipodi="http://sodipodi.sourceforge.net/DTD/sodipodi-0.dtd"
   xmlns="http://www.w3.org/2000/svg"
   xmlns:svg="http://www.w3.org/2000/svg"><sodipodi:namedview
   id="namedview5"
   pagecolor="#ffffff"
   bordercolor="#666666"
   borderopacity="1.0"
   inkscape:pageshadow="2"
   inkscape:pageopacity="0.0"
   inkscape:pagecheckerboard="0"
   showgrid="false"
   fit-margin-top="20"
   fit-margin-left="20"
   fit-margin-right="20"
   fit-margin-bottom="20"
   inkscape:zoom="2.5517726"
   inkscape:cx="112.66678"
   inkscape:cy="123.4436"
   inkscape:window-width="2560"
   inkscape:window-height="1415"
   inkscape:window-x="1080"
   inkscape:window-y="480"
   inkscape:window-maximized="1"
   inkscape:current-layer="Layer_1"
   lock-margins="true" /><defs
   id="defs7" />
<path
   d="m 212.56101,95.6 c -0.9,-0.2 -1.7,-0.6 -2.6,-0.6 -1.4,-0.1 -2.7,0.4 -4.1,-0.3 -1.3,-0.6 -1.9,-1 -3.2,-1.3 -1.1,-0.2 -2.6,-0.1 -3.6,-0.6 -1.1,-0.5 -1.2,-1.3 -2.2,-1.7 -0.7,-0.2 -1.9,-0.1 -2.6,-0.1 -2.4,-0.1 -3.4,-0.8 -5.5,-1.8 -0.9,-0.4 -2,-0.2 -3,-0.2 -1,-0.1 -1.6,-0.4 -2.6,-0.7 -1.7,-0.5 -3.6,0.1 -5.3,-0.4 -2.9,-0.7 -4.9,-1.3 -7.8,-1.2 -2,0.1 -3.6,-0.7 -5.5,-1.4 1.2,-2 2,-4 2.8,-6.2 0.4,-1.2 1.1,-2.4 1.4,-3.6 0.3,-1.1 0,-2 0,-3.2 0,-1.2 0.4,-1.5 0.8,-2.7 0.4,-1 0.5,-1.9 0.5,-3.1 0,-2 0.3,-4.8 -0.6,-6.5 -0.7,-1.5 -0.9,-1 -0.6,-2.8 0.2,-1 0.3,-1.9 0.4,-2.9 0.2,-2.1 0.6,-3.7 -0.2,-5.6 -0.8,-2 -2,-4.1 -2.5,-6.2 -0.5,-2.2 -0.3,-4.5 -1,-6.6 -1.9,-5.2 -4.6,-10.4 -4.3,-15.9 -2,0 -2.9,0.2 -4.8,0.9 -1.7,0.6 -4.2,1 -6.1,1.4 -1.1,0.2 -2.3,0 -3.4,0.3 -2,0.5 -3.9,1.7 -5.9,2.2 -1.5,0.4 -2.9,0.1 -4.3,0.6 -2,0.8 -3.9,2.1 -5.9,2.8 -0.5,0.2 -0.8,0.5 -1.3,0.5 -0.6,0 -1.4,-0.7 -2,-0.6 -1.1,0.2 -2.7,1.9 -3.8,2.5 -1.9,1.3 -3.1,2 -5.3,2.4 -1.8,0.4 -3,1.5 -4.6,2.6 -2.3,1.7 -6.2,2.9 -7.2,5.8 -0.6,1.6 -0.3,3.6 -0.9,5.2 -0.5,1.2 -1.7,2.2 -2.5,3.2 -1.9,2.2 -4.799998,4.9 -6.199998,7.5 -0.8,1.5 -1.1,3.6 -1.6,5.2 -0.6,1.8 -1.4,3.7 -1.8,5.6 -0.6,2.8 -1,6.8 -0.5,9.6 0.4,2 1.4,3.9 1.6,6 0.2,1.8 0.2,3.7 0.4,5.5 0.4,3.7 0.9,7.3 1.4,11 0.5,3.4 1.6,6.5 2.7,9.8 0.799998,2.6 2.999998,5.8 3.099998,8.4 0.1,1.4 -0.9,3.4 -1.3,4.8 -0.4,1.5 -0.8,3 -1.099998,4.6 -0.8,3.5 -1.2,6.3 -0.8,9.9 0.2,2.2 0.899998,4.1 1.299998,6.3 0.3,2 0.1,4.1 0.1,6.1 0,2.9 -1.499998,5.8 -2.599998,8.4 -2,4.5 -3.9,8.9 -5.9,13.4 -1.2,2.8 -3.2,5.3 -4.9,7.9 -1.1,-5.1 -2.5,-9.8 -4.2,-14.7 1.9,0 3.5,-3.2 4.5,-4.6 1.4,-2 2.5,-4.1 3.6,-6.3 1.9,-4 2.7,-8.9 4,-13.2 1.2,-4.1 2.5,-8.1 2.8,-12.4 0.4,-4.9 1.2,-10.5 0.8,-15.3 -0.4,-4.6 -2.2,-9.1 -4.2,-13.2 -0.8,-1.7 -0.4,-3.3 -1.3,-5 -1.5,-2.7 -3.7,-5.1 -5.5,-7.6 -2.8,-3.8 -6.1,-6.4 -9.7,-9.5 -1.5,-1.3 -2.9,-2.6 -4.3,-4 -1.8,-1.8 -3.3,-2.5 -5.5,-3.7 -2.5,-1.4 -4.8,-3.1 -7.2,-4.5 -2.1,-1.2 -4.3,-1.6 -6.6,-2.2 -3.2,-0.8 -4.9,-2.5 -7.8,-4 -1.1,-0.5 -1.5,-0.4 -2.6,-0.7 -1.5,-0.4 -2.8,-1.2 -4.4,-1.6 -0.6,3.1 -1.6,5.6 -3.1,8.4 -0.9,1.5 -2.4,2.4 -3.5,3.6 -1,1.1 -1.1,2.6 -1.7,4.1 -1.2,2.8 -2.6,5.4 -3.3,8.4 -0.4,1.5 -0.6,3.4 -1.4,4.8 -0.8,1.5 -2.3,2.8 -2.9,4.5 -1.1,3 -1.2,6.7 -1.8,9.9 -0.4,2.4 -0.1,4.9 -0.7,7.3 -0.4,1.9 -1.1,2.6 -0.7,4.5 0.4,1.7 0,2.8 -0.3,4.6 -0.399999,2.8 0,6 0.6,8.8 0.8,3.9 1.4,7.6 3.8,10.8 1.8,2.4 4.6,3.7 6.6,6 3.9,4.4 8.4,8.2 13.6,11.1 4.4,2.4 8.3,7 13.4,8.2 7.2,1.8 14.9,2.8 21.9,5.2 4.4,1.5 6.6,11.6 5,15.6 -1.2,2.9 -2.3,6 -3.6,8.9 -0.7,1.6 -1.5,3.1 -2.1,4.7 -0.5,1.3 -1,5.2 -2.8,3.3 -1.2,2.2 -1.3,3.5 -1.7,5.9 -0.3,2.4 -1.1,3.8 -2.3,5.9 -0.2,-0.2 -0.5,-0.3 -0.7,-0.5 -1.4,2.1 -2.1,4.5 -2.8,6.9 -0.6,1.8 -1.3,3.6 -1.8,5.4 -0.4,1.6 -0.3,1.3 1.4,1.9 1,-2.9 2.7,-5.5 3.4,-8.5 0.6,-2.7 2.3,-5.6 3.8,-7.9 0.7,-1.1 1.9,-1.6 2.2,-3 0.1,-0.4 -0.3,-1 -0.2,-1.4 0.1,-0.8 0.8,-1.8 1.1,-2.5 1.2,-2.7 2.7,-5.1 3.8,-7.8 0.6,-1.3 1.2,-2.6 1.9,-3.9 0.4,-0.7 1,-1.3 1.2,-2 0.2,-0.6 -0.1,-1.4 0.1,-2 0.4,-1.2 1.6,-2.4 2.7,-2.9 1.6,-0.8 2.9,-0.3 4.7,0.3 1.3,0.4 2.9,1.1 3.6,2.3 0.6,1 0.3,2.2 0,3.4 -0.6,3 -0.8,6.3 0.1,9.4 1.5,5.2 5.399998,10 8.399998,14.4 0.7,1 1,2.2 1.8,3.1 1.1,1.3 2.7,2.3 3.9,3.3 2.6,2.2 4.8,3.9 7.7,5.6 2.4,1.4 4.7,3.5 7.3,4.4 2.5,0.9 6.1,1.3 8.8,1.5 1.3,0.1 3,0.3 4.3,0 1.3,-0.2 2.3,-1 3.7,-1.1 1.5,-0.1 3.1,0 4.7,0 0.9,0 2.1,0.2 2.9,0 0.8,-0.2 1.3,-0.9 2.1,-1.1 1.5,-0.4 3.4,0.3 4.9,-0.1 2.2,-0.5 3.8,-2 5.9,-2.7 1.5,-0.5 3.1,-0.7 4.6,-1.2 1.4,-0.4 2.6,-1.3 3.9,-1.9 1.4,-0.7 2.6,-1.5 3.8,-2.3 1.4,-1 3,-1.5 4.6,-2.3 1.4,-0.7 2.2,-1.4 3.8,-1.7 1.8,-0.3 3.2,-1 4.8,-1.7 -1.2,-1.4 -2.4,-2.6 -3.5,-4.1 -0.4,-0.6 -1.2,-1.1 -1.5,-1.7 -0.3,-0.6 -0.1,-1.5 -0.3,-2.2 -0.5,-1.6 -1.5,-3 -2.1,-4.6 -0.2,-0.7 -0.5,-1.4 -0.6,-2 -0.1,-0.4 0,-1.3 -0.2,-1.7 -0.2,-0.5 -0.5,-0.5 -0.8,-0.9 -1,-1.4 -2.1,-2.7 -2.9,-4.2 -0.4,-0.8 -0.7,-1.8 -1.2,-2.5 -0.5,-0.7 -1.5,-1 -2,-1.7 -0.7,-0.9 -0.8,-2.3 -1.6,-3.1 -0.7,-0.7 -2,-0.7 -2.6,-1.4 -1,-1.1 -1.2,-2.9 -2.2,-4.1 -3,-3.4 -5.7,-5.7 -9.4,-8.3 4,-0.2 7.2,-0.4 10.8,-2.2 2.6,-1.3 5.5,-2.3 8.1,-3.7 1.5,-0.8 2.7,-1.9 4.3,-2.5 1.6,-0.6 2.7,-1 4.1,-2 3,-2.2 5,-4.9 7.4,-7.7 1,-1.2 2,-2.5 3,-3.7 0.8,-0.9 3.2,-2.8 3.4,-3.9 0.1,-0.6 -0.3,-1.3 -0.2,-2 0.1,-1 0.8,-2.2 1.1,-3.1 0.7,-1.8 1.6,-3.4 2.9,-5 0.3,-0.3 1.2,-1.1 1.3,-1.5 0.1,-0.4 -0.1,-0.5 -0.1,-1 0.1,-0.6 0.1,-1.4 0.2,-2.1 0.3,-1.6 0.3,-3.6 0.9,-5.1 0.6,-1.6 1.4,-2.6 1.7,-4.4 0.4,-1.9 0.8,-3.8 1.1,-5.7 0.2,-0.9 0.4,-1.7 0.7,-2.6 0.2,-0.4 0.7,-1.2 0.6,-1.6 0,-0.8 -0.5,-0.6 -0.7,-1.4 -0.6,-1.6 0.4,-3.1 0.7,-5 0.3,-2.1 -0.2,-4.2 0.3,-6.2 0.6,-2.2 1.5,-3.1 2.9,-4.7 z M 99.361012,161.3 c 0.999998,-3.2 2.699998,-7 2.999998,-10.4 0.4,-3.5 -0.3,-7.9 -0.7,-11.5 -0.4,-3.9 -0.2,-7.2 0.5,-11.1 0.6,-3.1 0.8,-8.5 4.7,-8.7 2.4,-0.1 3.9,-0.1 6,-0.9 2,-0.8 4.4,-0.9 6.6,-1.3 -1.2,2.1 -2.8,4.4 -3.3,6.8 -0.2,0.9 0,1.8 -0.2,2.7 -0.4,1.4 -1.4,2.4 -2.1,3.7 -1.2,2.3 -1.4,5 -2.3,7.3 -0.3,0.7 -0.9,1.3 -1.2,2 -0.5,1.2 -0.5,2.6 -0.8,3.9 -1,5 -1.8,9.8 -1.8,14.9 0,1 0.4,3.1 0,4.1 -0.4,0.8 -2.1,1.7 -2.7,2.2 -1.9,1.6 -3.7,3 -5.899998,4.3 -0.8,0.5 -2.6,2 -3.5,2.2 -1.4,0.2 -0.8,-0.8 -0.5,-1.7 1.2,-2.9 2.8,-5.7 4.2,-8.5 z m 16.799998,11.9 c -4.5,0.5 -12.3,1.8 -14.5,6.3 -1.2,2.5 -1.1,6 -4.599998,4.5 -1.9,-0.8 -5.7,-3.6 -7.9,-3 1.7,-2.6 3.1,-5.4 6,-6.7 2.7,-1.2 5.899998,-1.7 8.399998,-3.3 1.4,-0.9 2.6,-2.2 4,-3.1 2.2,-1.4 2.3,-1.1 4.6,0 1.3,0.7 2.7,1.4 4.1,1.9 1.3,0.4 4,0.2 4.7,1.6 -1.6,0.7 -3.2,1.3 -4.8,1.8 z"
   id="path3" />
</svg>
