<?xml version="1.0" encoding="UTF-8" standalone="no"?>
<!-- Created with Inkscape (http://www.inkscape.org/) -->

<svg
   version="1.1"
   width="237.90419"
   height="237"
   viewBox="0 0 237.90419 237"
   id="Layer_1"
   xml:space="preserve"
   sodipodi:docname="pinus.svg"
   inkscape:version="1.1.2 (0a00cf5339, 2022-02-04)"
   xmlns:inkscape="http://www.inkscape.org/namespaces/inkscape"
   xmlns:sodipodi="http://sodipodi.sourceforge.net/DTD/sodipodi-0.dtd"
   xmlns="http://www.w3.org/2000/svg"
   xmlns:svg="http://www.w3.org/2000/svg"><sodipodi:namedview
   id="namedview6"
   pagecolor="#ffffff"
   bordercolor="#666666"
   borderopacity="1.0"
   inkscape:pageshadow="2"
   inkscape:pageopacity="0.0"
   inkscape:pagecheckerboard="0"
   showgrid="false"
   fit-margin-top="0.8"
   fit-margin-left="0"
   fit-margin-right="0"
   fit-margin-bottom="0.8"
   inkscape:zoom="1.5145833"
   inkscape:cx="135.68088"
   inkscape:cy="9.2434663"
   inkscape:window-width="2560"
   inkscape:window-height="1415"
   inkscape:window-x="1080"
   inkscape:window-y="480"
   inkscape:window-maximized="1"
   inkscape:current-layer="Layer_1" /><defs
   id="defs9" />
<style
   type="text/css"
   id="style3" />
<path
   d="m 237.3184,90.385603 c -5.1,0.7 -10.6,-0.2 -13.5,4.6 -2.6,4.3 -4.5,9.899997 -6.4,14.499997 -0.8,2 -1.5,6.3 -4.3,5.9 -3.6,-0.4 -1.7,-4.6 -0.7,-6.4 2.4,-4.5 4.4,-9.199997 6.3,-13.799997 -2.3,-0.4 -8.4,10.199997 -9.9,12.199997 -1.7,2.3 -8.2,13.7 -11.9,11.3 -3.7,-2.4 7.4,-11.2 9.3,-13.1 3.9,-3.9 6.2,-8.699997 10.4,-12.399997 -2.3,-0.9 -4.4,0.5 -6.3,1.6 -2.2,1.2 -5.2,2.2 -7.2,3.5 -4,2.799997 -5.9,7.799997 -7.7,12.099997 -0.9,2.1 -2.3,5.3 -4.1,6.6 -0.9,0.7 -0.9,2 -2.4,0.6 -0.7,-0.7 -0.3,-2.4 -0.2,-3.2 0.7,-4.9 5.4,-8.3 6.8,-12.9 -4.9,4 -9.5,8.4 -14.1,12.6 -4.5,4.1 -4.4,9.3 -6.8,14.4 -1.1,2.3 -3.6,3.7 -4.3,0.6 -0.6,-3 2.6,-6.7 2.8,-9.6 0.2,-3 -1.3,-4.5 0.1,-7.8 1.1,-2.6 3.4,-5.2 5,-7.6 -2.9,1.3 -7.1,3.5 -8.9,6.3 -1.4,2.2 -1.8,6.3 -2.4,8.9 -0.5,2.3 -1.2,8.3 -3.8,9.5 -3.8,1.7 -2.3,-5.7 -2,-7.6 0.3,-1.9 0.8,-4.1 1.6,-5.9 0.7,-1.5 2.8,-3.2 2.9,-4.9 0.2,-5 -4.8,0.1 -6,1.8 -1.3,1.9 -2.7,17.6 -6.7,15.7 -1.6,-0.8 0.4,-8.9 0.6,-10.9 0.5,-4.1 2.8,-7.2 2.6,-11.3 -7.5,2 -6.5,12.5 -8.4,18.4 -0.7,2.2 -2.3,7.6 -5,5.3 -2.1,-1.8 0.7,-7.8 1.5,-10.2 -2.2,2 -3.5,3.6 -4.6,6.4 -0.7,1.9 -1.6,7.8 -4.3,5.2 -1.8,-1.7 0.5,-5.6 1.2,-7.5 1.1,-2.8 1.9,-7.2 3.6,-9.6 -1.8,2.7 -5.6,4.4 -7.7,7.1 -1,1.3 -2.6,3.5 -3.1,5.1 -0.5,1.7 0.3,3.7 0,5.4 -0.6,3.7 -5.3,6.7 -5.5,1.1 0,-0.7 2.3,-10.9 2.8,-10.7 -4,-1.3 -4.6,5.6 -8.2,6 -4.3,0.5 -0.3,-5.2 0.6,-7.4 -1.9,2.1 -3.5,4 -5,6.4 -1.2,2 -4.4,5.2 -4.5,7.5 -0.1,1.8 2.7,5.5 3.5,7.4 1.3,3.2 1.9,4.5 0.4,7.7 -5.1,-5.6 -7.7,-12.6 -9.6,-19.9 -2.3,3.2 -3.3,6.3 -1.2,9.6 1.9,3 4.6,5.9 6.9,8.6 0.8,1 6.1,8.5 1.8,8.6 -1.9,0 -3.1,-3.5 -3.8,-4.8 -1,-1.8 -1.6,-2.7 -3.1,-4.2 1.5,3.9 7.2,14.3 2.2,17.1 -3.1,-4.8 -2.7,-10.7 -5.2,-15.7 0,3 0.3,6.1 -0.4,9.1 -1.599995,-0.3 -2.899995,-10.2 -3.399995,-12.4 0,4.2 -0.4,7.9 1.2,11.7 1.699995,4.2 3.499995,9 4.799995,13.4 0.4,1.3 1.5,6.2 -1.5,5.4 -1.2,-0.3 -2.999995,-6.4 -3.399995,-7.6 -1.3,-4.2 -2.6,-8.6 -3.8,-12.8 -1.8,8.9 -0.9,15.9 4.5,23.3 0.999995,1.3 3.199995,4.6 0.699995,5.5 -2.199995,0.8 -2.699995,-2.2 -3.399995,-3.6 -1.1,-2 -2.4,-3.9 -3.3,-6 -0.7,-1.5 -0.8,-3.3 -2.1,-4.4 -0.8,4.4 -2.4,8.7 -2.1,13.1 0.3,4.4 3.7,8.1 3.6,12.6 -0.1,1.8 0.5,1.7 -1.2,2.4 -1.3,0.6 -1.8,0.6 -2.9,-0.6 -1.1,-1.2 -1.2,-4.4 -1.6,-6.1 -1,-4.6 -0.5,-9.2 -3.9,-12.6 -1.3,5.6 -0.3,10.1 -0.1,15.7 0.2,3.4 -2,7.1 -3.8,2.2 -1.1,-3 -0.4,-7.2 -1,-10.4 -2.1,2.5 -4.3,4.1 -6.8,6.2 -1.4,1.3 -6.1,4.7 -4.9,-0.3 0.5,-1.9 5,-5.2 6.5,-6.7 2.3,-2.2 4.2,-3.2 4.9,-6.3 -3,1.3 -6.1,2.8 -9.2,3.7 -1.2,0.3 -4.3,1.3 -5.3,0.5 -1.9,-1.5 -0.1,-2.5 1.4,-3.3 7.1,-3.7 13.7,-2.7 18.1,-10.4 -4.7,1.2 -8.6,3.3 -13.2,4.7 -2,0.6 -5.6,2.2 -7.8,1.7 -3.3,-0.8 -2.7,-3.2 -0.5,-4.7 2.2,-1.5 5.7,-1.4 8.1,-2 2.2,-0.5 4.1,-1.4 6.1,-2.4 2.5,-1.2 12.9,-5 10.8,-8.7 -5.1,2.8 -17.7,12.5 -22.8,7.2 3.4,-3.6 7.9,-3.6 12.2,-6 3.9,-2.2 8,-4.1 11.9,-6.2 -1.3,-2.1 -7.6,1 -9.8,1.4 -0.6,0.1 -11.2,0.2 -10.2,-1.2 1.6,-2.2 8.3,-1.9 10.5,-2.4 2,-0.4 8.9,-1.7 9.6,-4 -2.2,-0.5 -7.3,-0.3 -9,-1.8 -3.8,-3.2 3.7,-2.3 5.4,-2 3.3,0.6 6.3,0.7 8.6,-2 1.5,-1.8 3.7,-5.7 2.9,-8 -2.4,1.6 -4.5,3.7 -6.9,5.1 -1.8,1.1 -10.2,2.2 -6.9,-1.7 0.6,-0.8 4.1,-1.6 5.2,-2.4 1.2,-0.9 2.3,-2 3.5,-2.9 2.7,-1.9 6.5,-2.4 7.8,-5.7 -4,0.7 -7.9,2.3 -11.7,3.7 -1.7,0.6 -3.6,1.7 -4.8,3.1 -1.1,1.2 -2,3 -2.2,4.8 -0.3,2.3 0.8,11.1 -2.1,11.2 -3.6,0.1 -2,-9.4 -1.6,-11.5 -4.2,6 -6.9,12.7 -10.1,19.3 -0.5,1 -1.7,4 -3.1,4 -2.9,0 -1.7,-3.9 -1.2,-5.2 1.3,-3.8 4.1,-7.1 5.2,-11 -3,2.9 -4.5,6.9 -7.6,9.8 -1.2,1.1 -2.1,1.5 -2.8,2.8 -0.7,1.4 -0.7,3.6 -0.8,5.2 -0.2,2.3 -2.6,10.1 -4.6,4.9 -1.4,-3.6 3.2,-8.1 0.7,-11.8 -1.1,1.7 -2.5,6.6 -4.5,7.4 -4.3,1.8 -2,-4.7 -1,-6.4 1.8,-3.4 4.2,-5.8 6.8,-8.6 0.7,-0.7 7.1,-6.5 5.2,-7.3 -0.9,-0.4 -5.1,3.7 -6.3,4.6 -2.6,2 -4.3,3.9 -5.9,6.8 -3.2,5.4 -2.2,11.9 -5,17.1 -0.9,1.6 -3,3.1 -4,0.8 -0.4,-1 0.7,-4.1 1.1,-5.2 1.2,-3.5 2.2,-7 3.6,-10.4 -3.7,2.3 -5.8,3.6 -7.6,7.5 -1,2.2 -2.3,8.9 -4.7,9.7 -4.1,1.4 -0.4,-8.1 0.2,-9.7 1,-2.6 4.4,-6.7 3.2,-9.6 -8,2 -7.2,12 -10.1,18.2 -0.9,1.9 -1.9,5 -4.2,5.5 -4.1,1 -1.9,-1.8 -0.7,-3.4 2.6,-3.5 3.1,-8 4.1,-12.2 -2.1,1.9 -4.1,3.8 -6,5.7 -1.4,1.5 -8.9000001,5.7 -6.4000001,0.4 0.4000001,-0.8 4.7000001,-4.7 5.5000001,-5.3 2.8,-2.3 4.8,-2.7 6.8,-5.8 -4.7,-0.1 -7.5,4.1 -11.8,4.2 -1.4000001,0.1 -3.8000001,-0.6 -2.6000001,-2.5 0.3,-0.6 4.0000001,-1.5 4.7000001,-1.8 -2.3000001,-1.8 -8.9000001,3.3 -9.3000001,-0.8 -0.4,-4 7.6000001,-3.2 9.8000001,-5 -3.1000001,-1.7 -8.1000001,-2 -10.7000001,-4.2 -3.6,-3 -0.1,-4.2 3,-3.3 3,0.8 5.1000001,2.8 8.2000001,3.5 1.6,0.4 3.8,1.2 5.5,1.1 3,-0.1 2.7,-1.2 0.8,-2.4 -2.7,-1.7 -7.1,-2.1 -9.5,-4.3 -3.9000001,-3.4 0.7,-4 3.8,-2.9 3.1,1.1 5.8,3.2 8.8,4.2 4,1.3 8.3,1.9 12.5,2.5 -1.4,-7.3 -16,-3.4 -18.1,-9.4 -1.9,-5.4 8.3,0.1 9.4,0.7 3.3,1.7 7,1.7 10.7,1.9 -2.6,-1.6 -5.3,-2.6 -8.1,-3.9 -1,-0.5 -3.9,-1.4 -4.4,-2.6 -1.3,-2.8 1.2,-2.7 3,-2.3 1.2,0.3 17.3,7.8 17.6,3.8 0,0.3 -8.9,-4.2 -9.6,-4.8 -2,-1.7 -5.7,-6 -0.3,-4.5 2.7,0.8 4.9,3.8 7.5,5 3.5,1.6 7.5,1.5 11.2,1.8 -1.9,-0.9 -16,-5 -14.9,-7.5 1.7,-3.8 13.3,5.7 15.9,1.3 -1.3,-1 -13.7,-6.6 -9,-9.2 1.4,-0.8 8.1,5.3 9.4,6.1 0.6,0.4 7,3 7.1,3.1 -0.7,-4.1 -9.2,-5.9 -8.9,-11 0.3,-4.6 6,2.2 7.7,3.6 2.6,2.1 5.2,4.4 8.1,6 1.6,0.9 9.1,4.4 10.5,3 0.8,-0.8 -6.5,-3.1 -6.5,-3.2 -2.1,-0.9 -4.3,-2.2 -6.1,-3.6 -1.6,-1.2 -5.1,-3.8 -5.5,-5.9 -0.8,-3.5 2.4,-1.7 4,-0.7 8.4,5.1 18.7,15.2 29.4,11.3 3.1,-1.1 2.3,-2 -0.2,-3.3 -2.4,-1.3 -4.8,-2.3 -7.2,-3.6 -2.7,-1.5 -4.6,-1.6 -7.6,-2 -1.6,-0.2 -6.4,-0.4 -6.3,-2.9 0.2,-5.7 16.4,2.9 17.4,2.5 3.9,-1.4 -8.4,-6.5 -10,-7 -2.5,-0.7 -16.5,-1.2 -16.9,-4.4 -0.3,-3.399997 5.2,-1.3 6.9,-1 2.8,0.4 9.5,2.9 11.6,1.4 0.5,-0.4 -4.3,-2.999997 -5.1,-3.499997 -2.1,-1.4 -3.3,-2.3 -6,-2.8 -4.3,-0.9 -8.5,-0.4 -12.8,-0.6 -1.9,-0.1 -5.9,0.2 -4.2,-2.8 1.2,-2 5.5,-0.9 7.3,-0.8 5.3,0.2 10.6,-0.1 15.9,0.4 -3.5,-1.9 -5,-2.4 -8.9,-2.4 -2.8,0 -5.8,0.3 -8.6,0 -3.8,-0.4 -6.5,-3.3 -0.5,-2.8 2,0.1 8.5,1.7 9.9,-0.4 0.1,-0.1 -13.2,-7.5 -13.8,-8.8 -1.2,-2.6 1.9,-3.1 3.9,-2.5 3.3,1 5.9,4.7 9.2,6.1 1.8,0.8 5.9,2.6 4.5,-0.6 -1,-2.1 -5.7,-3.4 -7.8,-4.1 -1.2,-0.5 -8,-4.3 -4.9,-6 1.9,-1.1 7.7,3.4 10,3.5 -2.9,-2.2 -5.2,-4.4 -7.8,-6.9 -2.2,-2 -5.9,-3.1 -7.7,-5.4 -1.4,-1.8 -1.6,-3.9 1.2,-3.8 1.9,0.1 5,3.5 6.8,4.6 3.3,2 5.7,4.7 8.9,6.8 0.6,-4.1 -0.1,-8.3 0.6,-12.3 0.4,-2.1 1.1,-4.9 1.8,-6.9 1.1,-3.1 3.5,-4 3.8,-0.1 0.7,8.9 -5.9,19.8 1,27.6 0.9,-4 0.8,-6.2 -0.1,-10.3 -0.3,-1.5 -1.3,-4.3 0.6,-5.3 2.1,-1 3,4 3.1,5.3 2.7,-1.9 3,-6.3 5.8,-8.2 5.4,-3.7 3.8,2.6 1.9,5.6 -1.3,2.1 -3.5,4.1 -4.4,6.4 -1.4,3.3 -1,10.1 1.2,3.6 0.6,-1.7 1.3,-5.3 3,-6.3 2,-1.1 2.7,0.5 2.6,2.4 -0.1,2.5 -2.5,6.2 -3.5,8.5 -1.2,2.8 -2.1,5.6 -3.3,8.3 -1.8,4.1 -1.8,5.4 0.8,9.1 1.5,-4 1.3,-8 2.6,-12 1,-3.2 3.3,-10.9 6.1,-12.7 1.2,-0.8 4.399995,-0.7 4.599995,1 0.1,1.1 -2.499995,3.5 -2.899995,4.4 -1,2.1 -1.4,4.7 -2.1,6.9 -0.4,1.2 -1,6.6 -1.4,6.9 3,-3 2.9,-8.2 5.2,-11.2 2.299995,-3 3.799995,1.8 3.199995,4.3 -0.4,2.1 -1.7,3.9 -2.899995,5.6 -1.1,1.6 -2.4,4.2 -3.7,5.6 -1.3,1.3 -5.1,1.6 -5.7,3.7 -0.7,2.199997 4.8,9.399997 6.5,10.799997 1.1,-2.4 0.6,-3.8 0.5,-6.4 -0.2,-3.2 0.6,-7.099997 2.3,-9.899997 2.699995,-4.5 4.099995,-0.9 3.499995,2.8 -0.5,2.7 -3.799995,8.699997 -2.4,11.199997 0.8,1.5 3.2,-5.6 3.3,-5.7 0.3,-1.2 1,-3.999997 2.4,-3.999997 2.3,-0.1 1.8,4.099997 1.5,5.499997 -0.9,4 -8.199995,9.5 -6.8,12.8 2.1,5.2 11.7,2.3 15.2,0.1 4.2,-2.7 -0.6,-3 -3.4,-3.5 -2.1,-0.4 -6.1,-1.3 -6.2,-4.2 0,0 13.5,1.2 15,1.2 2.5,0 9.4,1.4 9.6,-1.4 -4.9,-0.7 -8.6,-1.4 -13.1,-3.8 -2.3,-1.2 -9.9,-5.999997 -9.7,-8.799997 0.3,-5.1 8.7,3.7 10,4.499997 3.5,2.1 6.8,3.4 10.8,4.2 -3.1,-3.7 -14.3,-3.9 -14.7,-10.099997 -0.4,-6.3 6.4,1.4 7.7,2.5 2.7,2.1 6.2,3.1 9.4,3.799997 -2.9,-2.399997 -6.5,-3.499997 -9.3,-5.999997 -0.8,-0.6 -3.3,-2.5 -2.8,-3.8 1,-2.4 4.6,0.2 5.8,0.7 1.6,0.6 8.9,3.3 8.1,0.3 -0.4,-1.5 -11,-6.3 -5,-7.7 4.4,-1.1 9.8,11 13.8,8.9 2.5,-1.3 -7.2,-6.3 -7.8,-7.4 -1.2,-2.5 0.7,-3.3 3,-2.6 2.4,0.7 4.1,2.9 5.7,4.6 1.4,1.6 7.6,9.4 9.9,5.5 -2.5,-1.9 -7.7,-4.3 -9.2,-7 -2.3,-4.1 3.4,-2.7 5.4,-1.7 3.6,1.7 6.3,4 9.7,5.9 3,1.7 5.8,2.8 8.7,4.9 -1.9,-2.7 -3.9,-5.2 -5.8,-7.8 -1.5,-2 -6.5,-9.7 -0.1,-7.3 2.8,1.1 2.6,3.4 4.1,5.6 1,1.4 2.6,2.7 3.7,4 1.3,1.4 2.3,2.8 4.1,3.9 0.5,0.3 5.7,2.5 5.6,1.8 -0.2,-2.9 -4.9,-4.5 -6.6,-6 -2.6,-2.4 -4.5,-5.9 0.5,-4 2.5,1 4.9,2.1 7.2,3.6 2,1.3 4,3.9 6.2,4.6 -1.7,-0.6 -3.7,-5.6 -5.2,-6.9 -1.5,-1.3 -3.2,-1.6 -4.8,-2.8 -1,-0.8 -5.2,-4.3 -4.5,-6.1 0.7,-1.7 7.9,2.8 9.1,3.6 3.5,2.3 7.9,5.1 11.2,7.8 1.6,1.3 2.6,3.9 5.2,3.6 2,-0.3 2.2,-0.9 1,-2.5 -1.5,-1.8 -5.4,-2.9 -7.4,-4.4 -2.7,-2.1 -5.3,-3.1 -6.3,-6.8 4,-0.7 10.1,4.6 13.5,6.8 1.7,1.1 3.3,3 5.2,3.8 0.8,0.3 5.8,1.5 5.9,0.3 0.1,-1.9 -8.7,-6.7 -10.3,-7.9 -1.2,-0.9 -4.6,-2.5 -5,-4 -0.6,-2.5 2.4,-2.8 4.6,-2.2 3.7,0.9 7.5,5.9 10.4,8.4 4.4,3.8 6.6,4.3 12.3,3.7 -4.1,-3.4 -8.5,-6.8 -12.1,-10.7 -1.4,-1.5 -3.5,-5.2 -0.6,-5.7 2.1,-0.3 4.5,2.6 5.7,4.1 2.6,3 7.1,9.4 10.8,11 2.4,1.1 7.3,-0.1 10,0 2.7,-0.6 2,0 2,3.6 z"
   id="path5"
   style="stroke:#000000;stroke-miterlimit:10" />
</svg>
