<?xml version="1.0" encoding="UTF-8" standalone="no"?>
<!-- Created with Inkscape (http://www.inkscape.org/) -->

<svg
   version="1.1"
   width="388.66745"
   height="388.07019"
   viewBox="0 0 388.66745 388.07019"
   id="Layer_1"
   xml:space="preserve"
   sodipodi:docname="quercus.svg"
   inkscape:version="1.1.2 (0a00cf5339, 2022-02-04)"
   xmlns:inkscape="http://www.inkscape.org/namespaces/inkscape"
   xmlns:sodipodi="http://sodipodi.sourceforge.net/DTD/sodipodi-0.dtd"
   xmlns="http://www.w3.org/2000/svg"
   xmlns:svg="http://www.w3.org/2000/svg"><sodipodi:namedview
   id="namedview5"
   pagecolor="#ffffff"
   bordercolor="#666666"
   borderopacity="1.0"
   inkscape:pageshadow="2"
   inkscape:pageopacity="0.0"
   inkscape:pagecheckerboard="0"
   showgrid="false"
   fit-margin-top="0"
   fit-margin-left="0"
   fit-margin-right="0"
   fit-margin-bottom="0"
   inkscape:zoom="1.5145833"
   inkscape:cx="173.97524"
   inkscape:cy="162.42091"
   inkscape:window-width="2560"
   inkscape:window-height="1415"
   inkscape:window-x="1080"
   inkscape:window-y="480"
   inkscape:window-maximized="1"
   inkscape:current-layer="Layer_1" /><defs
   id="defs7" />
<path
   d="m 388.39275,229.25757 c -0.4,-1.2 -1.7,-1.6 -2.1,-2.8 -0.7,-1.7 -0.4,-2.1 0.3,-3.4 0.6,-1 1.6,-1.7 1.7,-2.8 0.1,-1.2 -0.8,-3.5 -1.3,-4.6 -1.3,-2.5 -3.2,-5.8 -5.5,-7.3 -2.6,-1.6 -5.6,-2 -8.6,-2.6 -2.4,-0.5 -4.7,-1 -7.1,-1.4 -1.4,-0.2 -2.8,-0.5 -4.2,-0.6 -1.9,-0.2 -4.2,0.6 -6,0.3 -1.5,-0.3 -0.5,0.3 -1.7,-0.9 -0.5,-0.5 -1.7,-2.4 -1.7,-3 0.1,-2.5 7.2,-7.3 4.8,-10.2 -1.2,-1.5 -4.2,-0.1 -5.6,0.5 -3.8,1.5 -7.5,2.9 -11.4,4.1 -5.3,1.5 -10.2,3.3 -15.4,5.3 -5.6,2.2 -10.9,3.1 -16.7,4.6 -4.3,1.1 -4.3,0.8 -5.5,-3.3 -1,-3.6 -0.3,-6.9 0.9,-10.4 1.6,-4.9 5,-8.4 2,-13.7 -4.6,-8.1 -17.1,-1.4 -23.2,1.3 -2.7,1.2 -4.6,3.5 -6.8,5.4 -2.4,2.1 -5.1,3.5 -6.6,6.4 -2.5,4.6 -4.8,8.4 -8.7,12.1 -4.4,4.1 -6.4,10 -9,15.3 -1.9,4 -3.6,10.5 -6.9,13.5 -1.3,1.1 -0.9,1.1 -2.7,-0.2 -1.1,-0.8 -1.6,-1.2 -2,-2.3 -1,-2.9 -0.8,-6.4 -1.8,-9.5 -0.8,-2.6 -1.2,-3.3 -3.9,-2.7 -1.6,0.3 -3.6,0.8 -5.1,1.6 -1.7,0.9 -3.9,2.5 -5,4 -3.4,4.4 -3.9,10.8 -8,14.4 -4.1,3.6 -8.1,6.2 -13.6,6.7 -3.3,0.3 -5.4,0.7 -8.4,1.8 -2.1,0.8 -4.2,0.8 -6.5,0.9 -2.6,0.1 -5.6,0.8 -6.8,3.6 -0.4,0.9 0.2,2 0.1,3.1 -0.1,1.7 0.2,1.1 -1.4,2.2 -3,2 -4.3,2.9 -7.6,1 2.4,-2.7 2.6,-3.8 3.2,-7.4 0.5,-3.4 1.4,-3.7 4.1,-5.6 1.1,-0.7 3.8,-1.9 4.2,-3.2 0.4,-1 -0.8,-2.6 -0.6,-3.6 0.8,-2.9 4.1,-4.8 6.1,-6.6 1,-0.9 2.2,-1.7 3.2,-2.6 1.4,-1.2 1,-2.1 1.9,-3.6 1.3,-2 4.2,-3 6.5,-2.9 3,0.2 5.3,-0.2 7.8,-1.9 1.2,-0.8 1.7,-0.9 1.8,-2.3 0,-1.2 -2.1,-4.3 -3.1,-4.9 -1.3,-0.8 -3,-0.1 -4.2,-0.8 -0.3,-0.2 -1.6,-1.5 -1.8,-1.9 -0.4,-1.2 -0.4,-0.2 0.3,-1.4 1.4,-2.6 6.2,-1.4 8.7,-1.4 5.1,0 10.2,3.9 15.5,2.5 1.3,-0.3 2.5,-1.7 3.8,-2.2 1.7,-0.7 3.1,-0.7 4.4,-2.2 1.7,-2 1.5,-4.9 0,-7 -1.7,-2.4 -4,-4.7 -6.6,-6 -2.5,-1.3 -7.1,-1.8 -8.5,-4.8 -2,-4.4 9.2,-7.7 12.2,-8.9 4.6,-1.8 11.4,-4.3 14.7,-8 1.8,-2 1.8,-5.4 3.4,-7.2 0.9,-1 2.9,-1.1 4,-1.9 1,-0.8 1.6,-2 2.3,-3 1.5,-2.4 2.9,-4.6 3.9,-7.3 0.9,-2.5 3.6,-6.8 2.5,-9.6 -1.9,-4.9 -11.7,-4.5 -15.9,-5.2 -2.4,-0.4 -3.7,-0.3 -3.6,-3.1 0,-1.5 0.6,-2.5 1.2,-3.9 1.2,-2.7 1.9,-5.4 4.2,-7.3 2.8,-2.3 3.9,-2.8 5.5,-6.1 1.3,-2.5 2.7,-4.6 3,-7.4 0.6,-5.1 1.6,-14.099997 -4.8,-16.199997 -3.5,-1.1 -6.5,0.9 -9.8,0.2 -3.6,-0.7 -3.8,-5.4 -4,-8.3 -0.2,-1.7 -0.1,-3.5 -0.4,-5.2 -0.3,-1.4 -0.8,-1.8 -1.5,-2.6 -0.4,-0.5 -0.7,-0.4 -1.3,-1.1 -1.5,-2.1 -1.3,-5.3 -2.9,-7.4 -5.3,-6.8 -11,6.2 -15,7 -2.5,0.5 -5.8,-1.7 -8.1,-1.2 -2.4,0.5 -4.1,5.5 -5.1,7.3 -1.4,2.4 -3.1,4.7 -4.5,7.1 -1.5,2.6 -2.1,5.6 -3,8.5 -0.8,2.6 -2.7,7.199997 -6,4.4 -1.9,-1.6 -3.2,-4.1 -4.4,-6.3 -4.1,-7.8 -13.3,-6.2 -15.3,2.3 -1.3,5.599997 -1.7,10.899997 -1.4,16.699997 0.2,5.4 1.6,10.7 1.8,16.1 0.1,2.8 2.1,8.4 -0.7,10.1 -2.6,1.7 -8.5,-0.6 -11.6,-1.3 -4.1,-1 -8.3,-3.2 -12.4,-1.2 -1.8,0.9 -2.4,0.9 -2.4,3.4 0,1.3 2,5.7 0.8,6.7 -0.4,0.3 -2.5,-0.2 -2.9,-0.5 -1.1,-0.8 -1.4,-2.4 -1.4,-3.6 -0.2,-2.8 1.2,-5 2.2,-7.4 2.5,-5.9 3.9,-11.4 5.1,-17.7 1.1,-5.4 2.7,-11.1 3,-16.6 0.3,-5.199997 0.7,-13.899997 -4.1,-17.099997 -6.1,-4 -13,0.4 -17.4,4.6 -2,1.9 -3.5,4 -5.4,5.9 -1,1 -2.6,3 -3.9,2.2 -1.1,-0.7 -1.2,-3.3 -1.2,-4.4 0,-2.9 0.7,-5.9 0.6,-8.8 -0.1,-3 -0.9,-6.1 -1.4,-9.1 -0.8,-4.9 -0.5,-10.3 -3.5,-14.4 -2,-2.8 -3.9,-3.1 -6.9,-1.9 -3,1.2 -3.8,3.5 -5.8,5.9 -1.6,1.9 -3.8,5.5 -5.9,6.6 -3.6,1.9 -4.1,-2.4 -5.6,-4.7 -1.6,-2.5 -4.2,-5.3 -6.4,-7.3 -2,-1.8 -5.2,-2.7 -7.6,-4.1 -4,-2.2 -7.6,-2.3 -10.8,1.2 -2,2.2 -2.4,5.5 -4.4,7.6 -2.1,2.2 -2.9,3 -3,6.3 -0.2,3 -0.2,6.7 0.3,9.6 0.7,3.9 7.6,14.1 0.8,15.8 -1.1,0.3 -2.9,-0.1 -4.1,0 -2.1,0.1 -4.1,0.1 -6.2,0 -2.7,-0.2 -6.5,0 -9,1.2 -5.8,2.7 -1.2,11.399997 1.6,14.999997 3.7,4.9 9,7.9 13.3,12.2 3.5,3.5 9.4,7.8 9.9,13 0.6,5.8 -11.4,5.4 -15.2,5.5 -3.4,0.1 -6.8,-0.5 -10,0.7 -2.1,0.7 -2.1,0.5 -2.6,2.3 -0.4,1.5 -0.2,2.7 0.1,4.1 1.4,5.2 6.5,9 10.6,12.2 4.6,3.5 9.3,6 14.5,8.4 2.5,1.2 5.3,2.2 7.5,3.8 2.2,1.6 3.8,3.9 6,5.5 2.4,1.8 5,3.3 7.5,4.9 1.7,1.1 9,3.9 8.5,5.5 -0.4,1.4 -5.7,2 -7,2.3 -1.1,0.2 -2.6,0.3 -3.5,0.8 -1.5,0.8 -2.2,2.8 -3.6,3.8 -2.6,1.8 -6.2,1.9 -8.6,4.3 -3,3.1 0.7,6.1 3.3,7.7 2.2,1.4 5.5,3.2 8.2,3.3 3.9,0.2 7.4,-2.9 11.3,-1.4 1.5,0.6 2.4,1.6 3.9,2 1.7,0.4 3.6,0.3 5.3,0.6 3,0.7 5.9,1.9 8.9,2.7 2.1,0.5 7.2,1.6 7.9,4 0.8,3.2 -5.7,5 -7.9,6.3 -2.1,1.3 -5.1,3.7 -4.8,6.5 0.2,2 4.5,5.4 1.9,7.2 -1.4,1 -3.7,-0.1 -5,-0.7 -2.1,-1 -2.1,-1.7 -3.3,-3 -0.9,-1.1 -2.4,-1.8 -3.3,-2.9 -0.8,-1 -1.4,-2.4 -2,-3.4 -3.1,-5.2 -7.3,-8.6 -13.4,-10 -3.3,-0.7 -5.4,-1.1 -8.7,-0.7 -3.3,0.4 -4.4,0.7 -5.3,4.1 -0.4,1.6 -1.2,4.2 -0.7,5.9 0.5,1.4 1.7,2.3 1.9,4 0.3,2.6 -1.2,1.7 -3.3,1 -1.6,-0.5 -3,-1.2 -4.4,-2.1 -2.7,-1.7 -5.7,-1.7 -8.6,-3 -2.7,-1.1 -5.4,-1.9 -8.2,-2.6 -2.3,-0.6 -7.6,-1.1 -9.7,0 -2.9,1.6 -3.6,5.1 -2.5,7.7 1.3,3 2.7,5.4 -1.7,4.6 -2.7,-0.5 -5.2,-1.6 -7.9,-2.1 -2.8,-0.5 -5.8,0.5 -6.1,3.8 -0.4,3.7 3.4,5.7 -1.7,7.8 -5.3000002,2.1 -12.60000024,3.4 -11.60000024,10.7 1.00000004,7.2 8.50000004,6.4 13.70000024,8 2.5,0.8 5.7,2.7 3.4,5.1 -1.8,1.8 -7.4000002,4.3 -4.4,7.4 2,2.1 7.4,2.3 10.1,2.5 3.1,0.2 4.7,-1 7.5,-2 2.5,-0.9 9,-3.8 10.3,0 0.8,2.5 -3,6.4 -4.6,7.8 -1.5,1.3 -2.8,1.8 -3,4 -0.2,2 0.5,2.1 2,3.3 2.7,2 3.7,1.8 7.2,1.9 5.5,0.1 10.1,-1.5 15.2,-3.5 2.6,-1 5.7,-1.7 8,-3.2 2.5,-1.7 4.2,-4.2 7.1,-5.4 1.9,-0.8 5.9,-1.3 6.1,2 0.1,1.6 -3.2,4.6 -4.5,5.7 -2.1,1.8 -4.6,2.2 -5.2,5.3 -0.6,3 -0.3,6.1 2.1,8.1 1.9,1.6 5.6,1.2 8.1,0.9 3.6,-0.4 7.8,-2.7 10.7,-4.7 2.3,-1.6 4.1,-4 6.2,-5.8 2,-1.8 4.2,-3.3 6.2,-5 2.3,-2 3.9,-4.4 6.7,-5.5 1.5,-0.6 5.7,-3.4 6.7,-1.5 1.2,2.1 -2.2,6 -3.2,7.5 -0.9,1.3 -1.7,2.2 -0.3,3.7 0.8,0.9 1.5,1 3,0.7 2.8,-0.5 6.3,-1.7 8.7,-3.2 1.9,-1.2 5.2,-3 6.8,-4.5 0.9,-0.9 1.1,-2.2 2.2,-2.8 1,-0.6 2.6,-0.6 3.7,-0.8 3.7,-0.6 5.1,-0.4 7.8,-3 2.5,-2.4 3.2,-2.2 6.6,-2.6 3.1,-0.4 4.7,-0.9 7.2,-2.7 1.3,3.2 1.6,6.2 1,9.7 -0.3,1.8 -3.2,10.2 0.9,10.1 4.7,-0.1 5.4,-18.2 6.1,-21.1 0.7,-2.9 2.6,-5.3 3.9,-8.1 0.7,-1.5 1,-3.6 2.1,-4.8 1,-1.1 4.1,-2.2 5.5,-2.5 1.3,-0.3 3.4,-0.6 4.3,0.4 1.6,1.8 -0.7,3.4 -1.2,5.2 -1,4.3 1.3,7.5 5,9.5 3.4,1.9 7.3,1.3 10.5,3.8 3.1,2.5 6.8,5.2 9.3,0.3 0.9,-1.7 0.7,-4.3 2,-5.8 0.9,-1 0.1,-1.2 1.3,-0.4 0.7,0.5 1.1,2.8 1.3,3.5 1,4.4 2.1,7.2 5.4,10.3 5.1,4.7 7.9,12.4 14.2,15.8 4.3,2.3 6.4,2.4 11,1.5 3.7,-0.7 5.9,-2.9 7.4,-6.4 1.3,-3 0.4,-7.7 -1.3,-10.6 -0.9,-1.5 -3.1,-2.3 -3.5,-4.1 -0.2,-0.9 0,-2.9 0.4,-3.9 0.7,-1.8 -0.1,-0.9 1.6,-1.7 4.7,-2 8.6,-0.5 10.6,4.1 1.5,3.5 2.8,7 5.6,9.5 5.7,5.1 9.8,11.7 16.1,16 1.3,0.9 2.4,1.8 3.9,2.1 2.6,0.6 3,0.7 5.3,2.4 4.1,3 10.2,5.2 15.2,5 2.4,-0.1 5.1,-0.3 7.4,-1.2 1.7,-0.6 6.3,-3.1 7,-4.9 0.7,-1.9 -0.9,-5 -1.2,-7 -0.2,-1.5 -0.2,-3.1 -0.6,-4.6 -0.9,-3.8 -1.7,-7.7 -3.2,-11.3 -0.6,-1.4 -2.5,-3.5 -1.4,-4.9 1.2,-1.6 6.2,-0.1 7.8,0.4 3.7,1.3 7.6,1.8 11.4,3.1 3,1 6,2 8.9,3 4.2,1.4 7.2,2.8 11.5,2.3 3.7,-0.4 9,-1.1 11.9,-3.3 1.4,-1.1 2,-2.8 2.8,-4.3 1.3,-2.6 0.8,-2.9 -0.8,-5.4 -2,-3.2 -4.2,-5.5 -7.1,-7.8 -2.7,-2.1 -5.2,-4.3 -7.8,-6.5 -1.8,-1.5 -4,-2.3 -3.1,-5 0.6,-1.8 2,-2.7 3.9,-3.5 3.6,-1.5 7.9,-2.2 11.7,-3.2 2.7,-0.7 7.9,-1.4 10.1,-3 4.4,-3.2 -2.1,-3.8 -1.3,-7.4 0.4,-2.1 1.5,-2 3.9,-2.6 1.7,-0.4 3.5,-0.7 5.2,-1 3.6,-1.3 11.1,-3.1 9.3,-7.7 z m -245.8,-37 c 0.8,-2.1 1,-3.4 2.7,-4.5 2.2,-1.4 4.6,-1.9 6.4,-4.1 2.4,-2.9 2.9,-7.4 3.9,-10.9 0.9,0.7 1.8,1.5 2.8,2.1 1,0.5 2.4,0.6 3.3,1.3 2.6,1.9 2.6,5.3 3.4,8 0.5,1.7 1.7,2.1 2.8,3.5 0.7,0.9 0.9,2.1 1.6,3 1.5,1.8 4.6,2.3 5.8,4.3 0.5,0.9 1.1,3.5 1,4.6 -0.1,2.7 -1.5,2.5 -3.7,2.2 -1.6,-0.2 -6,0 -7,-1 -1.7,-1.6 -0.1,-3.2 -2.5,-4.4 -1.6,-0.8 -2.4,-0.5 -3.9,-0.2 -2.5,0.5 -5.1,1.5 -7.5,2.4 -0.8,0.3 -1.8,0.4 -2.5,0.9 -0.8,0.6 -1,2 -1.8,2.6 -1.5,1.1 -2.7,-0.1 -3.8,-1.5 -1.7,-2.4 -1,-5.5 -1,-8.3 z m 21.4,74.4 c -0.9,2 -1.6,4.2 -4.1,4.2 -2,0 -4.9,-1.6 -2.3,-3 2.5,-1.4 3.5,0.3 3.6,-2.9 0.1,-2.5 -0.3,-4.4 -2.6,-5.6 -2.2,-1.1 -4.9,-1.6 -7.3,-2.5 -1.5,-0.6 -4.5,-1.2 -5.7,-2.1 -1.4,-1 -1.6,-4 -2.9,-4.7 -1.6,-0.9 -4.3,0.3 -5.9,0.8 -1.9,0.5 -4.4,0.1 -5.7,-1.9 -0.8,-1.2 0.5,-3.2 0.1,-4.7 -0.4,-1.5 -2.2,-2.7 -1.4,-4.5 0.5,-1.1 2.2,-1.7 3.3,-2 1.5,-0.4 4.4,-0.3 5.1,1.4 0.7,1.8 -1.7,2.5 -1.8,3.2 -0.1,1.1 1.4,1.9 2.5,2.7 1.3,0.9 2.5,0.7 3.7,1.4 0.9,0.5 1.8,2 2.5,2.8 1.2,1.4 2.6,3.9 4.1,4.8 1.3,0.7 6.5,1.4 7.9,0.6 2.8,-1.7 -1.2,-5.6 0,-6.7 1.5,-1.3 5.5,5.3 6,6.2 2.3,4.6 1.8,7.7 0.9,12.5 z m 5,-14.9 c -2.2,-1.3 -4.3,-0.7 -5.9,-3.1 -0.4,-0.6 -1.9,-2 0.1,-2.4 1.5,-0.2 1.2,1.8 2.9,0.9 2.8,-1.5 1,-11 0.2,-13.8 -0.6,-2 0.8,-4.5 0.2,-6.1 -0.6,-1.5 -3.8,-3.2 -5.1,-4.2 -2.8,-2.2 -4.3,-2.1 -3,-5.6 0.8,-2.1 2.3,-3.9 3.6,-5.8 1.7,1.3 3.4,2.5 5,3.8 1.8,1.5 2.1,1.4 1.4,3.5 -0.8,2.5 -2,3.5 -0.6,5.8 1.3,2.1 2.9,3.8 2.4,6.6 -0.3,1.7 -1,2.1 -0.9,4 0.2,2 0.8,3.8 1.7,5.5 1.9,3.8 1.8,8.4 -2,10.9 z"
   id="path3" />
</svg>
