<?xml version="1.0" encoding="UTF-8" standalone="no"?>
<svg
   xmlns:dc="http://purl.org/dc/elements/1.1/"
   xmlns:cc="http://creativecommons.org/ns#"
   xmlns:rdf="http://www.w3.org/1999/02/22-rdf-syntax-ns#"
   xmlns:svg="http://www.w3.org/2000/svg"
   xmlns="http://www.w3.org/2000/svg"
   xmlns:sodipodi="http://sodipodi.sourceforge.net/DTD/sodipodi-0.dtd"
   xmlns:inkscape="http://www.inkscape.org/namespaces/inkscape"
   data-name="Layer 1"
   viewBox="0 0 63.117759 63.11776"
   x="0px"
   y="0px"
   version="1.1"
   id="svg126"
   sodipodi:docname="noun_Torii gate_2579080.svg"
   width="63.11776"
   height="63.11776"
   inkscape:version="1.0.2 (394de47547, 2021-03-26)">
  <metadata
     id="metadata132">
    <rdf:RDF>
      <cc:Work
         rdf:about="">
        <dc:format>image/svg+xml</dc:format>
        <dc:type
           rdf:resource="http://purl.org/dc/dcmitype/StillImage" />
        <dc:title>16-shrine</dc:title>
      </cc:Work>
    </rdf:RDF>
  </metadata>
  <defs
     id="defs130" />
  <sodipodi:namedview
     pagecolor="#ffffff"
     bordercolor="#666666"
     borderopacity="1"
     objecttolerance="10"
     gridtolerance="10"
     guidetolerance="10"
     inkscape:pageopacity="0"
     inkscape:pageshadow="2"
     inkscape:window-width="1920"
     inkscape:window-height="1056"
     id="namedview128"
     showgrid="false"
     fit-margin-top="0"
     fit-margin-left="0"
     fit-margin-right="0"
     fit-margin-bottom="0"
     inkscape:zoom="10.123412"
     inkscape:cx="34.972688"
     inkscape:cy="32.801719"
     inkscape:window-x="0"
     inkscape:window-y="0"
     inkscape:window-maximized="0"
     inkscape:current-layer="svg126" />
  <title
     id="title116">16-shrine</title>
  <circle
     style="fill:#bdd4f6;fill-opacity:1"
     id="path1810"
     cx="31.55888"
     cy="31.55888"
     r="31.55888" />
  <path
     d="m 51.454233,26.699618 h -4 l -0.46,-5.05 h 2.55 a 1,1 0 0 0 1,-1 v -1.85 c -1.75,0.29 -4.32,0.6 -8.13,0.92 -5.36,0.44 -10.64,0.68 -10.69,0.69 h -0.05 c 0,0 -5.33,-0.25 -10.69,-0.69 -3.81,-0.32 -6.38,-0.63 -8.13,-0.92 v 1.84 a 1,1 0 0 0 1,1 h 2.54 l -0.46,5.05 h -4 a 0.76,0.76 0 0 0 -0.77,0.77 v 2.72 a 0.77,0.77 0 0 0 0.77,0.78 h 3.62 l -2,22.2 a 0.65,0.65 0 0 0 0.64,0.7 h 4.15 a 0.64,0.64 0 0 0 0.64,-0.62 l 0.84,-22.23 h 23.7 l 0.86,22.28 a 0.64,0.64 0 0 0 0.64,0.62 h 4.15 a 0.65,0.65 0 0 0 0.64,-0.7 l -2,-22.2 h 3.66 a 0.77,0.77 0 0 0 0.77,-0.78 v -2.76 a 0.76,0.76 0 0 0 -0.79,-0.77 z m -21.84,0 h -9.63 l 0.19,-5.05 h 9.44 z m 4.12,0 v -5.05 h 9.44 l 0.19,5.05 z"
     id="path118"
     style="fill:#003978;fill-opacity:1" />
  <path
     d="m 55.374233,12.159618 a 104.58,104.58 0 0 1 -23.7,2.56 104.58,104.58 0 0 1 -23.7000005,-2.56 0.24,0.24 0 0 0 -0.29,0.3 17.66,17.66 0 0 0 1.8,4.72 c 1.1900005,1.71 22.1900005,2.66 22.1900005,2.66 0,0 21,-0.95 22.19,-2.66 a 17.66,17.66 0 0 0 1.81,-4.72 0.24,0.24 0 0 0 -0.3,-0.3 z"
     id="path120"
     style="fill:#003978;fill-opacity:1" />
  <polygon
     points="68.056,77.083 68.056,68.75 31.944,68.75 31.944,77.083 37.5,77.083 62.5,77.083 "
     id="polygon198"
     transform="matrix(0.23090344,0,0,0.23090344,20.250128,31.598391)"
     style="fill:#003978;fill-opacity:1" />
  <path
     d="m 30.833126,44.58671 c 0,-0.177334 -0.143391,-0.320724 -0.320725,-0.320724 -0.141543,0 -0.257919,0.09282 -0.300405,0.220281 l -0.0039,-0.0012 -0.568254,1.704991 h -1.692984 c -0.177334,0 -0.320725,0.143391 -0.320725,0.320725 0,0.177334 0.143391,0.320725 0.320725,0.320725 h 2.155253 l 0.714415,-2.143246 -0.0039,-0.0014 c 0.01131,-0.03187 0.02055,-0.06466 0.02055,-0.100212 z"
     id="path200"
     style="fill:#003978;fill-opacity:1;stroke-width:0.230903" />
  <g
     id="g206"
     transform="matrix(0.23090344,0,0,0.23090344,20.250128,31.598391)"
     style="fill:#003978;fill-opacity:1">
    <path
       d="M 36.111,54.861 H 24.146 l -3.503,-9.584 -0.019,0.007 c -0.531,-1.689 -2.091,-2.924 -3.957,-2.924 -0.67,0 -1.295,0.174 -1.856,0.455 L 14.804,42.801 C 5.257,47.574 0,58.27 0,72.917 c 0,2.301 1.865,4.166 4.167,4.166 h 12.5 v 13.889 c 0,2.302 1.865,4.167 4.167,4.167 2.302,0 4.166,-1.866 4.166,-4.167 V 72.917 C 25,70.615 23.135,68.75 20.833,68.75 H 8.51 C 9.016,62.761 10.784,56.3 15.473,52.294 l 4.265,6.587 0.01,-0.005 c 0.457,0.91 1.388,1.541 2.475,1.541 h 13.889 c 1.534,0 2.777,-1.244 2.777,-2.778 0,-1.534 -1.244,-2.778 -2.778,-2.778 z"
       id="path202"
       style="fill:#003978;fill-opacity:1" />
    <circle
       cx="27.778"
       cy="39.583"
       r="6.25"
       id="circle204"
       style="fill:#003978;fill-opacity:1" />
  </g>
  <path
     d="m 35.643769,46.190103 h -1.693216 l -0.568253,-1.70499 -0.0037,0.0012 c -0.04272,-0.127459 -0.158862,-0.220282 -0.300637,-0.220282 -0.177334,0 -0.320724,0.143391 -0.320724,0.320725 0,0.03556 0.0092,0.06835 0.02032,0.100212 l -0.0039,0.0014 0.714414,2.143246 h 2.155484 c 0.177334,0 0.320725,-0.143391 0.320725,-0.320725 0,-0.177334 -0.14316,-0.320725 -0.320494,-0.320725 z"
     id="path208"
     style="fill:#003978;fill-opacity:1;stroke-width:0.230903" />
  <circle
     cx="36.926666"
     cy="40.738243"
     r="1.4431465"
     id="circle210"
     style="fill:#003978;fill-opacity:1;stroke-width:0.230903" />
  <path
     d="m 39.922409,41.48129 -0.0016,0.0032 c -0.129768,-0.06489 -0.274313,-0.105061 -0.428788,-0.105061 -0.430404,0 -0.791075,0.284934 -0.913454,0.675162 l -0.0046,-0.0016 -0.808855,2.21298 h -2.76276 c -0.354206,0 -0.641218,0.287012 -0.641218,0.641219 0,0.354205 0.287012,0.641449 0.641218,0.641449 h 3.207018 c 0.250992,0 0.466194,-0.1457 0.571717,-0.355822 l 0.0023,0.0012 0.985034,-1.520961 c 1.082475,0.924999 1.490712,2.416866 1.60755,3.799747 h -2.845885 c -0.53154,0 -0.962175,0.430635 -0.962175,0.962174 v 4.168962 c 0,0.53154 0.430635,0.962175 0.962175,0.962175 0.531539,0 0.961943,-0.430635 0.961943,-0.962175 v -3.206787 h 2.886294 c 0.531539,0 0.962174,-0.430634 0.962174,-0.961944 0,-3.382042 -1.21386,-5.851785 -3.418063,-6.953888 z"
     id="path212"
     style="fill:#003978;fill-opacity:1;stroke-width:0.230903" />
</svg>
